<?xml version="1.0" encoding="utf-8"?>
<!-- Generator: Adobe Illustrator 15.0.2, SVG Export Plug-In . SVG Version: 6.00 Build 0)  -->
<!DOCTYPE svg PUBLIC "-//W3C//DTD SVG 1.1//EN" "http://www.w3.org/Graphics/SVG/1.1/DTD/svg11.dtd">
<svg version="1.1" id="Layer_1" xmlns="http://www.w3.org/2000/svg" xmlns:xlink="http://www.w3.org/1999/xlink" x="0px" y="0px"
	 width="90px" height="90px" viewBox="0 0 90 90" style="enable-background:new 0 0 90 90;" xml:space="preserve">
<style type="text/css">
<![CDATA[
	.st0{fill:#FFFFFF;}
	.st1{fill:#0081FF;}
]]>
</style>
<g>
	<path class="st0" d="M36.978,27.343c0.31-1.12-1.977,1.725-1.42,0.853c-0.151-0.521,0.853-1.847-1.213-2.035
		c-0.089-1.156,0.766-1.368,1.067-2.133c-1.27,0.081-0.605-1.081-1.778-0.355c0.128-1.324,0.045-1.546-0.178-2.667
		c0.77,0.059,1.177-0.245,1.422-0.711c-0.077-0.397-0.876-0.072-1.245-0.178c0.007-1.199,1.44-1.026,1.245-2.489
		c0.551,0.018,0.849-0.217,1.244-0.355c0.057-0.472-0.996,0.166-0.711-0.534c0.179-0.972,0.951-0.388,0.355-1.422
		c0.572,0.039,0.752-0.314,1.422-0.178c-0.018-0.456-0.663-0.286-0.889-0.533c1.136-0.424,1.361-1.112,2.667-1.6
		c-1.125-0.711-2.638-1.036-2.489-3.022c2.39,1.351,6.688-0.295,8.889,1.244c3.359,0.197,6.626,0.485,7.645,3.022
		c-0.548,1.528-1.557,2.276-1.067,4.444c-1.397-0.021-1.359,0.953-2.489,1.956c-1.163,1.033-2.35,1.777-2.311,4.089
		c1.296,1.819,1.365,3.692,2.133,5.867c1.107,3.135,4.195,5.153,4.089,8.533c-0.034,1.086,0.702,1.195,0.945,2.271
		c0.212,0.937,1.007,2.023,1.847,2.984c0.995,1.137,3.138,2.217,3.785,3.635c0,0.83,0,1.659,0,2.489
		c-0.854,4.283-0.695,8.629-2.489,12.089c-0.768-0.062-1.183-0.477-1.245-1.244c-0.716-0.065-0.275,1.028-1.066,0.889
		c-1.487-1.131-2.03-4.162,0.355-4.622c-0.719-2.926,1.627-5.062,0.889-8c-1.532-1.55-5.233-0.93-6.578-2.667
		C37.664,59.448,33.088,57.853,30.967,60.117c-0.021,2.587,0.279,5.494-0.889,6.933c0.271,2.245,0.066,4.153-0.355,6.223
		c-0.211,1.039-0.82,2.147-0.889,3.022c-0.255,3.232,2.57,4.446,3.733,7.111c0.914,0.521,1.978,1.594,1.6,2.844
		c-0.889,0-1.778,0-2.667,0c-0.005-0.173-0.218-0.138-0.355-0.178c-0.33-0.455-0.854-1.414-0.355-2.133
		c-0.044-0.673-1.022-0.407-1.422-0.711c-0.589-0.447-1.12-1.894-1.778-2.667c-0.924-1.085-2.139-1.862-2.311-2.844
		c-0.38-2.174,1.313-5.119-0.355-7.289c-0.857,2.443-3.207,3.774-2.845,6.578c0.278,2.156,2.628,3.627,2.667,6.044
		c0.702,1.017,1.958,1.479,1.956,3.2c-1.126,0-2.252,0-3.378,0c-0.439-0.846,0.125-1.611,0-2.667
		c-2.182-1.552-2.845-4.622-4.622-6.578c-0.701,0.466-0.566-0.753-1.245,0c-0.452-0.674-0.551-1.7-1.245-2.133
		c0.312,1.401,1.216,2.977,0.889,4.445c-1.703-2.979-2.662-6.702-6.4-7.645c-0.948-1.837-2.923-2.648-3.2-5.156
		c0-0.711,0-1.422,0-2.133c1.235-3.98,3.305-6.522,7.645-7.645c1.319-3.244,1.076-7.248,7.04-10.797
		c8.826-3.396,12.877-8.343,14.651-10.216C38.857,33.656,37.297,29.847,36.978,27.343z M48.033,18.694
		c-0.374,0.634-0.637,1.377-0.533,2.489c1.938-0.231,2.304-2.862,3.911-2.844c0.078-0.611-0.07-0.997-0.178-1.422
		C48.989,16.379,50.118,19.593,48.033,18.694z M45.9,22.605c1.724-0.846,0.445-3.908,2.311-4.8c0.547-0.133,0.342,0.488,0.889,0.355
		c0.142-0.332,0.297-0.651,0.355-1.067C45.61,16.644,44.245,19.994,45.9,22.605z M46.789,24.028c-0.193-0.563,0.689-1.494-0.178-1.6
		C46.204,22.873,46.13,23.788,46.789,24.028z M17.633,72.028c-0.949,0.055-1.347-1.372-2.133-0.889
		c0.808,1.142,2.11,1.196,2.667,2.312c-0.062-0.125-0.627,1.579,0.356,1.244c0-0.415,0-0.83,0-1.244
		c1.575-1.27,1.652-4.037,2.311-6.223c-2.947-1.675-5.467-3.777-5.689-8.178c-1.848,0.912-2.12,4.153-1.422,6.4
		c0.646,2.08,4.002,3.602,4.089,5.155c-1.909-0.285-2.9-2.432-4.089-2.844C14.84,69.251,16.961,70.684,17.633,72.028z"/>
</g>
<g>
	<path class="st0" d="M50.545,33.971c0.777,0.341,2.583-0.045,3.643-0.43c1.488-0.537,2.01-1.378,3.363-1.643
		c0.711,0.171,1.425,0.343,2.139,0.514c3.501,1.619,7.269,2.382,9.869,4.638c-0.21,0.646-0.653,0.916-1.324,0.812
		c-0.204,0.603,0.827,0.45,0.542,1.101c-1.278,1.043-3.996,0.884-3.896-1.262c-2.663,0.014-4.014-2.443-6.69-2.416
		c-1.648,0.994-4.844,2.605-5.952,3.264L50.545,33.971z"/>
</g>
<path class="st1" d="M66.085,76.433c0,2.55-2.067,4.618-4.618,4.618s-4.618-2.067-4.618-4.618c0,2.55-2.067,4.618-4.618,4.618
	s-4.618-2.067-4.618-4.618c0,2.55-1.292,5.187-4.275,7.318l-3.41,1.847h29.917c0.552,0,1-0.448,1-1v-3.562
	c-0.048,0.001-0.094,0.014-0.143,0.014C68.153,81.05,66.085,78.983,66.085,76.433z"/>
</svg>
